<?xml version="1.0" encoding="iso-8859-1"?>
<!-- Generator: Adobe Illustrator 19.0.0, SVG Export Plug-In . SVG Version: 6.00 Build 0)  -->
<svg version="1.1" id="Capa_1" xmlns="http://www.w3.org/2000/svg" xmlns:xlink="http://www.w3.org/1999/xlink" x="0px" y="0px"
	 viewBox="0 0 512 512" style="enable-background:new 0 0 512 512;" xml:space="preserve">
<g>
	<path style="fill:#00CCB2;" d="M211,406c0,57.99-47.01,106-105,106S0,463.99,0,406s48.01-105,106-105S211,348.01,211,406z"/>
	<path style="fill:#00CCB2;" d="M211,106c0,57.99-47.01,105-105,105S0,163.99,0,106S48.01,0,106,0S211,48.01,211,106z"/>
</g>
<g>
	<path style="fill:#DEECF1;" d="M106,482L106,482c-41.421,0-76-34.579-76-76l0,0c0-41.421,34.579-75,76-75l0,0
		c41.421,0,75,33.579,75,75l0,0C181,447.421,147.421,482,106,482z"/>
	<path style="fill:#DEECF1;" d="M106,181L106,181c-41.421,0-76-33.579-76-75l0,0c0-41.421,34.579-76,76-76l0,0
		c41.421,0,75,34.579,75,76l0,0C181,147.421,147.421,181,106,181z"/>
</g>
<g>
	<path style="fill:#00AB94;" d="M512,106c0,57.99-48.01,105-106,105s-105-47.01-105-105S348.01,0,406,0S512,48.01,512,106z"/>
	<path style="fill:#00AB94;" d="M512,406c0,57.99-48.01,106-106,106s-105-48.01-105-106s47.01-105,105-105S512,348.01,512,406z"/>
</g>
<g>
	<path style="fill:#C6E2E7;" d="M406,181L406,181c-41.421,0-75-33.579-75-75l0,0c0-41.421,33.579-76,75-76l0,0
		c41.421,0,76,34.579,76,76l0,0C482,147.421,447.421,181,406,181z"/>
	<path style="fill:#C6E2E7;" d="M406,482L406,482c-41.421,0-75-34.579-75-76l0,0c0-41.421,33.579-75,75-75l0,0
		c41.421,0,76,33.579,76,75l0,0C482,447.421,447.421,482,406,482z"/>
</g>
<path style="fill:#5A5A5A;" d="M350.799,256c0-20.101,7.8-39,21.901-53.101l83.099-83.101l-63.6-63.6L309.101,139.3
	C295,153.399,275.501,160.6,256,160.6s-39-7.202-53.101-21.301L119.8,56.198l-63.6,63.6l83.099,83.101
	c14.102,14.101,21.902,33,21.902,53.101c0,20.099-7.8,39-21.901,53.099L56.201,392.2l63.6,63.6l83.099-83.099
	C217,358.599,236.499,351.4,256,351.4s39,7.2,53.101,21.301L392.2,455.8l63.6-63.6l-83.1-83.101
	C358.599,295,350.799,276.099,350.799,256z"/>
<path style="fill:#444444;" d="M372.7,309.099l83.099,83.101l-63.6,63.6l-83.098-83.1C295,358.599,275.501,351.4,256,351.4V160.6
	c19.501,0,39-7.202,53.101-21.301L392.2,56.198l63.6,63.6l-83.1,83.101c-14.101,14.101-21.901,33-21.901,53.101
	C350.799,276.099,358.599,295,372.7,309.099z"/>
<path style="fill:#FDBF00;" d="M211,211v90h90v-90H211z"/>
<rect x="256" y="211" style="fill:#FF9F00;" width="45" height="90"/>
<g>
</g>
<g>
</g>
<g>
</g>
<g>
</g>
<g>
</g>
<g>
</g>
<g>
</g>
<g>
</g>
<g>
</g>
<g>
</g>
<g>
</g>
<g>
</g>
<g>
</g>
<g>
</g>
<g>
</g>
</svg>
